<?xml version="1.0" encoding="utf-8"?>
<!-- Svg Vector Icons : http://www.onlinewebfonts.com/icon -->
<!DOCTYPE svg PUBLIC "-//W3C//DTD SVG 1.1//EN" "http://www.w3.org/Graphics/SVG/1.1/DTD/svg11.dtd">
<svg version="1.1" xmlns="http://www.w3.org/2000/svg" xmlns:xlink="http://www.w3.org/1999/xlink" x="0px" y="0px" viewBox="0 0 256 256" enable-background="new 0 0 256 256" xml:space="preserve">
<metadata> Svg Vector Icons : http://www.onlinewebfonts.com/icon </metadata>
<g><g><g><path fill="#000000" d="M222.7,128V33.3h-59.3V128l29.4-17.7L222.7,128z M222.7,10c6.3,0,11.7,2.3,16.4,6.9c4.6,4.6,6.9,10,6.9,16.3v141.8c0,6.3-2.3,11.8-6.9,16.6c-4.6,4.8-10.1,7.2-16.4,7.2H80.9c-6.3,0-11.8-2.4-16.6-7.2c-4.8-4.8-7.2-10.3-7.2-16.6V33.3c0-6.3,2.4-11.7,7.2-16.4c4.8-4.6,10.3-6.9,16.6-6.9L222.7,10L222.7,10z M33.3,57.1v165.6h165.6V246H33.3c-6.3,0-11.7-2.3-16.4-6.9c-4.6-4.6-6.9-10-6.9-16.3V57.1H33.3z"/></g></g></g>
</svg>